<?xml version="1.0" encoding="utf-8"?>
<!-- Generator: Adobe Illustrator 16.0.0, SVG Export Plug-In . SVG Version: 6.00 Build 0)  -->
<!DOCTYPE svg PUBLIC "-//W3C//DTD SVG 1.1//EN" "http://www.w3.org/Graphics/SVG/1.1/DTD/svg11.dtd">
<svg version="1.1" id="layer" xmlns="http://www.w3.org/2000/svg" xmlns:xlink="http://www.w3.org/1999/xlink" x="0px" y="0px"
	 width="352.038px" height="81px" viewBox="0 0 352.038 81" enable-background="new 0 0 352.038 81" xml:space="preserve">
<path id="C" fill="#2E0E02" d="M329.171,74.065c-8.59,0.103-15.613-1.428-21.075-4.587c-9.386-5.289-14.079-14.233-14.079-26.826
	c0-10.992,4.236-19.416,12.715-25.277c6.085-4.147,13.764-6.247,23.036-6.299c9.387-0.051,16.438,1.374,21.161,4.277l-1.961,4.51
	h-0.342c-4.778-3.213-10.922-4.821-18.431-4.821c-8.478,0-15.416,2.127-20.818,6.378c-6.373,4.926-9.529,12.029-9.472,21.308
	c0.056,9.333,3.071,16.327,9.044,20.992c5.12,3.993,11.804,5.962,20.052,5.911c9.045-0.05,15.898-1.76,20.564-5.132h0.254
	l2.219,4.588C346.863,72.355,339.239,74.014,329.171,74.065z"/>
<path id="I2" fill="#2E0E02" d="M257.07,72.193v-3.617h8.312V16.11h-8.312v-3.54h21.902v3.54h-7.618v52.466h7.618v3.617H257.07z"/>
<path id="M" fill="#2E0E02" d="M232.335,72.392V18.156l-25.754,46.609l-25.827-46.766v54.313h-5.831V12.453h8.997l22.666,42.356
	l22.669-42.435h8.826v60.018H232.335z"/>
<path id="I_1_" fill="#2E0E02" d="M67.88,72.193v-3.617h8.312V16.11H67.88v-3.54h21.901v3.54h-7.618v52.466h7.618v3.617H67.88z"/>
<path id="R" fill="#2E0E02" d="M46.313,71.748l-19.479-26.27H6.059v26.19H0V12.047h29.778c6.406,0,11.454,1.6,15.149,4.798
	c3.462,3.042,5.193,7.002,5.193,11.878c0.058,4.197-1.242,7.763-3.895,10.698c-3.002,3.147-7.357,5.14-13.072,5.979l20.604,26.347
	H46.313z M30.124,16.216H6.231v24.859h23.026c4.56,0,8.108-1.023,10.648-3.07c2.771-2.202,4.127-5.4,4.071-9.597
	c-0.119-3.984-1.62-7.079-4.504-9.282C36.876,17.187,33.762,16.216,30.124,16.216z"/>
<polygon id="topZ" fill="#FDB90B" points="167.001,0 100.247,0 100.247,7 153.175,7 132.624,35.6 139.167,38.772 "/>
<polygon id="bottomZ" fill="#D30002" points="136.862,41.983 130.345,38.772 100.001,81 165.247,81 165.247,74 113.878,74 "/>
</svg>
