<?xml version="1.0" encoding="utf-8"?>
<!-- Generator: Adobe Illustrator 16.0.0, SVG Export Plug-In . SVG Version: 6.00 Build 0)  -->
<!DOCTYPE svg PUBLIC "-//W3C//DTD SVG 1.1//EN" "http://www.w3.org/Graphics/SVG/1.1/DTD/svg11.dtd">
<svg version="1.1" xmlns="http://www.w3.org/2000/svg" xmlns:xlink="http://www.w3.org/1999/xlink" x="0px" y="0px" width="400px"
	 height="400px" viewBox="0 0 400 400" enable-background="new 0 0 400 400" xml:space="preserve">
<g id="白背景" display="none">
	<rect display="inline" fill="#FFFFFF" width="400" height="400"/>
</g>
<g id="ポテト_1_">
	<g>
		<path id="ポテト輪郭" fill="#FDB90B" d="M331.146,96.962l-18.939-3.574c-0.351-0.066-0.699-0.105-1.046-0.13l4.03-18.265
			c1.064-4.834-2.018-9.663-6.854-10.729l-18.821-4.153c-4.835-1.068-9.66,2.015-10.728,6.85l-0.207,0.94l-0.124-33.648
			c-0.019-4.95-4.083-8.984-9.035-8.968l-19.274,0.072c-4.952,0.017-8.985,4.083-8.967,9.033l0.049,13.119
			c-0.695-0.218-1.419-0.364-2.176-0.407l-14.227-0.804l2.594-17.468c0.726-4.896-2.687-9.498-7.583-10.225l-19.065-2.832
			c-4.896-0.727-9.498,2.684-10.225,7.582l-2.107,14.189l-0.488-20.95c-0.126-5.444-4.687-9.794-10.13-9.668l-21.199,0.494
			c-5.445,0.126-9.796,4.685-9.669,10.129l0.423,18.192l-10.849-0.614c-4.942-0.279-9.214,3.536-9.493,8.479l-0.522,9.231
			c-1.977-2.098-4.922-3.222-7.967-2.74l-19.038,3.021c-4.889,0.776-8.255,5.412-7.479,10.299l7.003,44.142l-2.181-5.576
			c-1.803-4.61-7.052-6.906-11.662-5.103l-17.95,7.022c-4.61,1.804-6.906,7.051-5.103,11.661l17.644,45.101
			c-2.374-0.536-4.598-1.061-6.856-1.626l24.53,224.023c29.577-5.184,65.49-8.213,104.342-8.213
			c38.856,0,74.864,3.044,104.439,8.229l24.535-224.064c-0.752,0.188-1.517,0.374-2.282,0.558l9.833-52.095
			C339.24,102.611,336.01,97.881,331.146,96.962z"/>
		<path fill="#D30002" d="M330.867,159.013c-0.751,0.188-1.517,0.374-2.281,0.558l-10.438,2.343
			c-5.892,1.222-12.098,2.352-18.58,3.383l-14.732,2.112c-5.983,0.766-12.161,1.449-18.505,2.05l-16.639,1.347
			c-5.903,0.4-11.926,0.728-18.049,0.979l-13.313,0.422c-5.414,0.121-10.896,0.186-16.438,0.186c-0.411,0-0.819-0.002-1.23-0.003
			l-19.807-0.3c-6.586-0.19-13.067-0.465-19.42-0.825l-13.969-0.94c-5.996-0.468-11.855-1.014-17.566-1.629l-18.296-2.284
			c-7.061-1.009-13.819-2.134-20.246-3.363l-11.481-2.385c-2.374-0.536-4.697-1.085-6.956-1.652l2.541,23.204l1.151,10.407l0,0
			l20.854,190.455c29.577-5.186,65.585-8.229,104.438-8.229c38.855,0,74.862,3.044,104.438,8.229l20.956-191.387l0.958-9.742
			L330.867,159.013z M299.485,197.146l-14.734,2.111c-5.982,0.767-12.16,1.449-18.505,2.05l-16.638,1.346
			c-5.903,0.402-11.926,0.73-18.049,0.982l-13.312,0.421c-5.415,0.121-10.896,0.187-16.438,0.187c-0.413,0-0.82-0.003-1.231-0.005
			l-19.807-0.3c-6.585-0.189-13.066-0.466-19.419-0.825l-13.97-0.939c-5.996-0.469-11.854-1.015-17.566-1.629l-18.296-2.284
			c-6.499-0.928-12.729-1.961-18.695-3.077l-0.969-9.466c6.25,1.186,12.806,2.274,19.651,3.254l18.296,2.283
			c5.711,0.616,11.571,1.16,17.566,1.63l13.969,0.94c6.353,0.359,12.834,0.634,19.42,0.824l19.807,0.301
			c0.41,0.001,0.819,0.003,1.229,0.003c5.542,0,11.022-0.064,16.438-0.187l13.312-0.421c6.124-0.252,12.146-0.58,18.049-0.98
			l16.639-1.349c6.344-0.599,12.521-1.283,18.506-2.047l14.731-2.112c4.247-0.676,8.362-1.398,12.359-2.157l-0.97,9.475
			C307.171,195.866,303.384,196.525,299.485,197.146z"/>
		<g id="ポテト">
			<path fill="#FFCE33" d="M222.078,104.205l-3.843,68.002c-5.416,0.121-10.896,0.187-16.438,0.187c-0.41,0-0.819-0.003-1.229-0.005
				l3.909-69.177L222.078,104.205z"/>
			<path fill="#FFCE33" d="M244.407,96.042l0.889,0.152l16.492,2.8l-10.324,60.807l-1.868,11.004
				c-5.903,0.4-11.925,0.728-18.049,0.979L244.407,96.042z"/>
			<path fill="#FFCE33" d="M278.744,112.762l9.462-42.88l17.213,3.798l-20.679,93.729c-5.984,0.766-12.162,1.449-18.506,2.05
				l2.848-12.905L278.744,112.762z"/>
			<path fill="#FFCE33" d="M268.637,35.113l0.208,56.616c-1.241-1.156-2.816-1.979-4.604-2.282l-13.043-2.214l-0.191-52.056
				L268.637,35.113z"/>
			<path fill="#FFCE33" d="M237.68,56.864l-1.926,34.079c-0.425,0.811-0.734,1.697-0.896,2.646l-3.51,20.671l0.584-10.322
				c0.279-4.941-3.536-9.214-8.48-9.494l-5.535-0.313l0.118-2.093l5.345-35.982L237.68,56.864z"/>
			<path fill="#FFCE33" d="M200.146,25.611l17.436,2.59l-2.829,19.046l-6.5,43.772l-0.377,2.544l-3.668-0.208
				c-4.941-0.279-9.213,3.537-9.493,8.478l-3.385,59.901l-1.544-66.371L200.146,25.611z"/>
			<path fill="#FFCE33" d="M177.169,17.75l1.925,82.732l1.54,66.155l0.127,5.452c-6.586-0.19-13.067-0.465-19.42-0.825l-1.22-52.443
				l-2.34-100.618L177.169,17.75z"/>
			<path fill="#FFCE33" d="M136.797,44.981l10.81,0.611l1.986,85.393l-2.223,39.339c-5.996-0.468-11.855-1.014-17.566-1.629
				L136.797,44.981z"/>
			<polygon fill="#FFCE33" points="101.861,62.691 119.273,59.929 124.317,91.716 120.343,162.03 115.766,150.331 			"/>
			<path fill="#FFCE33" d="M71.586,112.751l16.417-6.423l23.506,60.084c-7.06-1.009-13.819-2.134-20.246-3.363L71.586,112.751z"/>
			<path fill="#FFCE33" d="M318.052,161.914c-5.893,1.222-12.098,2.352-18.58,3.383l11.722-62.104l17.321,3.271L318.052,161.914z"/>
		</g>
		<path id="口周り" fill="#2D1112" d="M231.543,281.729h-63.085c-2.747,0-4.976,1.053-4.976,2.354
			c0,10.354,16.382,18.779,36.519,18.779c20.134,0,36.519-8.425,36.519-18.779C236.52,282.781,234.29,281.729,231.543,281.729z
			 M200,298.155c-13.134,0-24.076-5.076-26.196-11.72h52.39C224.073,293.079,213.134,298.155,200,298.155z"/>
		<path id="口中" fill="#FDB90B" d="M200,298.155c13.133,0,24.073-5.076,26.194-11.72h-52.39
			C175.925,293.079,186.867,298.155,200,298.155z"/>
		<g id="目">
			<circle id="左目" fill="#2D1112" cx="152.783" cy="255.351" r="12.607"/>
			<circle id="右目" fill="#2D1112" cx="247.217" cy="255.351" r="12.607"/>
		</g>
	</g>
</g>
</svg>
